HIERARCHY
ROOT Hips
{
	OFFSET -3.958830 18.904000 13.208200
	CHANNELS 6 Xposition Yposition Zposition Zrotation Yrotation Xrotation 
	JOINT LHipJoint
	{
		OFFSET 0.000000 0.000000 0.000000
		CHANNELS 3 Zrotation Yrotation Xrotation
		JOINT LeftUpLeg
		{
			OFFSET 1.800000 -1.400000 0.085000
			CHANNELS 3 Zrotation Yrotation Xrotation
			JOINT LeftLeg
			{
				OFFSET 2.215000 -6.000000 0.000000
				CHANNELS 3 Zrotation Yrotation Xrotation
				JOINT LeftFoot
				{
					OFFSET 2.500000 -6.900000 0.000000
					CHANNELS 3 Zrotation Yrotation Xrotation
					JOINT LeftToeBase
					{
						OFFSET 0.200000 -0.500000 1.950000
						CHANNELS 3 Zrotation Yrotation Xrotation
						End Site
						{
							OFFSET 0.000000 0.000000 0.000000
						}
					}
				}
			}
		}
	}
	JOINT RHipJoint
	{
		OFFSET 0.000000 0.000000 0.000000
		CHANNELS 3 Zrotation Yrotation Xrotation
		JOINT RightUpLeg
		{
			OFFSET -1.800000 -1.400000 0.085000
			CHANNELS 3 Zrotation Yrotation Xrotation
			JOINT RightLeg
			{
				OFFSET -2.215000 -6.000000 0.000000
				CHANNELS 3 Zrotation Yrotation Xrotation
				JOINT RightFoot
				{
					OFFSET -2.500000 -6.900000 0.000000
					CHANNELS 3 Zrotation Yrotation Xrotation
					JOINT RightToeBase
					{
						OFFSET -0.200000 -0.500000 1.950000
						CHANNELS 3 Zrotation Yrotation Xrotation
						End Site
						{
							OFFSET 0.000000 0.000000 0.000000
						}
					}
				}
			}
		}
	}
	JOINT LowerBack
	{
		OFFSET 0.000000 0.000000 0.000000
		CHANNELS 3 Zrotation Yrotation Xrotation
		JOINT Spine
		{
			OFFSET -0.087000 1.940000 -0.288900
			CHANNELS 3 Zrotation Yrotation Xrotation
			JOINT Spine1
			{
				OFFSET 0.000000 1.950000 0.060000
				CHANNELS 3 Zrotation Yrotation Xrotation
				JOINT Neck
				{
					OFFSET 0.000000 0.000000 0.000000
					CHANNELS 3 Zrotation Yrotation Xrotation
					JOINT Neck1
					{
						OFFSET 0.000000 1.600000 0.340000
						CHANNELS 3 Zrotation Yrotation Xrotation
						JOINT Head
						{
							OFFSET 0.000000 1.667000 -0.240000
							CHANNELS 3 Zrotation Yrotation Xrotation
							End Site
							{
								OFFSET 0.000000 0.000000 0.000000
							}
						}
					}
				}
				JOINT LeftShoulder
				{
					OFFSET 0.000000 0.000000 0.000000
					CHANNELS 3 Zrotation Yrotation Xrotation
					JOINT LeftArm
					{
						OFFSET 2.700000 1.550000 -0.730000
						CHANNELS 3 Zrotation Yrotation Xrotation
						JOINT LeftForeArm
						{
							OFFSET 5.450000 0.000000 0.000000
							CHANNELS 3 Zrotation Yrotation Xrotation
							JOINT LeftHand
							{
								OFFSET 3.450000 0.000000 0.000000
								CHANNELS 3 Zrotation Yrotation Xrotation
								JOINT LeftHandIndex1
								{
									OFFSET 0.750000 0.000000 0.000000
									CHANNELS 3 Zrotation Yrotation Xrotation
									End Site
									{
										OFFSET 0.000000 0.000000 0.000000
									}
								}
							}
						}
					}
				}
				JOINT RightShoulder
				{
					OFFSET 0.000000 0.000000 0.000000
					CHANNELS 3 Zrotation Yrotation Xrotation
					JOINT RightArm
					{
						OFFSET -2.700000 1.550000 -0.730000
						CHANNELS 3 Zrotation Yrotation Xrotation
						JOINT RightForeArm
						{
							OFFSET -5.450000 0.000000 0.000000
							CHANNELS 3 Zrotation Yrotation Xrotation
							JOINT RightHand
							{
								OFFSET -3.450000 0.000000 0.000000
								CHANNELS 3 Zrotation Yrotation Xrotation
								JOINT RightHandIndex1
								{
									OFFSET -0.750000 0.000000 0.000000
									CHANNELS 3 Zrotation Yrotation Xrotation
									End Site
									{
										OFFSET 0.000000 0.000000 0.000000
									}
								}
							}
						}
					}
				}
			}
		}
	}
}
MOTION
Frames: 13
Frame Time: 0.016667
-0.674680 16.433890 -0.330770 -0.261251 -11.002492 3.201871 -15.261453 14.024160 2.342652 8.787389 -1.748557 -25.264645 17.650502 0.498819 20.583676 -0.402894 3.730251 3.130513 0.325070 0.232800 0.635050 18.253246 -10.302887 2.893777 -1.656298 0.372905 -8.660263 6.378139 -3.588494 3.855792 -0.151807 -3.283690 3.015469 0.233700 0.186780 0.320560 -3.302446 -3.677554 -6.674229 2.139510 1.117070 5.828144 -0.510110 2.223906 9.781101 -4.067475 -11.455668 -12.349278 -32.841493 33.039601 20.108246 -11.562550 30.677710 -4.979640 6.224930 1.094762 6.927127 -8.518574 4.491002 3.699275 -39.065431 -39.772009 13.909261 -3.789289 4.064227 0.085440 0.354560 0.027440 -0.047630 2.257329 6.733063 4.322092 3.569824 0.411328 0.431268 55.224759 49.667355 23.412490 2.302867 -2.268365 -0.144160 -0.084940 -0.152290 -0.191500 
-0.655360 16.436420 -0.346100 -0.298551 -9.685853 3.891045 -15.281475 13.964787 2.312669 8.612955 -1.678236 -24.992001 17.093560 0.632252 19.404216 -0.422161 3.563835 3.200812 0.341390 0.246130 0.631680 18.239769 -10.285971 2.922347 -1.957568 0.440027 -8.939182 7.234565 -3.600416 3.181168 -0.162217 -3.285712 3.024251 0.239390 0.177690 0.299430 -3.272195 -3.572977 -6.651476 2.205137 1.697408 5.236503 -0.146224 2.689099 9.767601 -3.531240 -11.753470 -12.116506 -33.598718 31.963675 20.604981 -11.197720 29.145720 -4.789740 2.505668 0.135385 5.885369 -5.908574 3.780039 3.828868 -39.602890 -36.360793 13.059215 -3.802345 3.976569 0.103130 0.326140 0.034490 -0.031410 4.921076 8.377177 5.221969 1.388765 -1.300398 0.526027 57.118519 51.309946 25.022545 2.368785 -2.257898 -0.145730 -0.063550 -0.165390 -0.181740 
-0.633650 16.437430 -0.358000 -0.794454 -8.346735 4.200364 -15.257621 13.989909 2.271790 8.991180 -1.428226 -24.868545 15.931877 1.031163 21.030968 -0.382266 3.653277 3.160044 0.374880 0.293620 0.616920 18.251011 -10.360826 2.932174 -1.559594 0.483814 -9.292175 7.232442 -3.655044 3.974058 -0.166852 -3.248299 3.050676 0.250460 0.162010 0.289390 -3.330111 -3.433270 -6.654199 3.087189 1.814389 5.611636 -0.268188 2.802583 9.473438 -3.086673 -11.973010 -12.170043 -33.562378 31.095362 20.413248 -10.502630 27.905520 -4.633210 0.277997 -0.434923 5.732506 -6.117927 4.617272 3.360852 -40.167636 -37.344436 13.455086 -3.783135 3.960606 0.101120 0.297110 0.049410 0.001210 6.354793 9.251962 5.656171 1.299077 -1.668734 0.589164 62.406138 53.605539 28.833064 2.422762 -2.268164 -0.118380 -0.063600 -0.194190 -0.154940 
-0.612580 16.437800 -0.366690 -1.073632 -6.309583 4.424477 -15.247596 14.024628 2.305453 8.888024 -1.380622 -25.377832 15.175211 1.389139 24.018026 -0.320841 3.954363 3.055792 0.355530 0.280520 0.576550 18.248726 -10.428077 2.903747 -1.035449 0.585448 -9.907982 6.602534 -3.688006 5.422412 -0.128909 -3.187261 3.094069 0.235380 0.187180 0.284630 -3.357372 -3.364958 -6.684933 3.529443 1.742603 6.302654 -0.468874 2.744484 9.123414 -2.761252 -11.972293 -12.169351 -31.832441 29.751307 20.228165 -10.201450 26.994970 -3.947240 -0.211952 -0.314779 5.923495 -9.290510 4.947596 2.594351 -41.735971 -40.531709 14.931900 -3.800058 3.940776 0.076660 0.310230 0.029140 0.018630 6.309707 9.225726 5.706016 4.711065 -0.442770 0.487261 69.114079 54.291452 32.595901 2.440341 -2.261956 -0.112910 -0.062730 -0.192620 -0.133550 
-0.587520 16.448210 -0.379590 -0.936549 -3.124612 4.153826 -15.266483 14.063986 2.435242 8.116414 -1.713842 -26.154005 14.531777 1.693571 28.211640 -0.179157 4.420379 2.895347 0.329930 0.258430 0.548610 18.214483 -10.447348 2.863104 -0.859419 0.628231 -10.138510 6.022743 -3.752173 6.817005 -0.106939 -3.168359 3.116079 0.193280 0.190130 0.302060 -3.317350 -3.452672 -6.802363 3.502929 1.252845 8.065621 -0.593515 2.332238 8.437386 -2.345672 -11.707579 -12.178554 -29.629177 28.122116 20.568967 -10.958080 26.645340 -2.986160 -0.201134 -0.112683 6.103805 -14.546486 3.748515 1.555019 -43.244761 -42.926013 16.147179 -3.792499 3.938788 0.036500 0.321750 0.027830 0.037600 5.602822 8.850999 5.600046 10.487935 1.476970 0.316764 75.924123 54.366405 36.082896 2.476911 -2.286398 -0.079270 -0.105680 -0.211810 -0.104930 
-0.551620 16.472930 -0.400160 -1.243445 0.340330 2.831630 -15.241085 14.142950 2.537674 7.829173 -2.018268 -25.855348 13.787318 2.066663 32.805678 0.013736 5.011372 2.680611 0.326800 0.271890 0.527630 18.207628 -10.501060 2.860520 -0.497859 0.501772 -9.508150 5.550141 -3.911696 8.340718 -0.133707 -3.195284 3.120325 0.153470 0.153650 0.302880 -3.395133 -3.532943 -7.003572 4.774457 0.119054 11.700362 -1.643746 1.585892 7.343654 -1.744382 -11.346169 -12.744207 -28.115701 26.913661 21.273429 -11.206140 25.985830 -2.761430 1.125868 -0.418479 6.876578 -23.338505 2.020848 -0.250200 -42.804365 -44.440641 15.791663 -3.700061 3.913148 0.020870 0.280890 0.064600 0.058760 3.250010 8.610032 5.408786 20.092825 4.554330 -0.102299 79.924130 53.700093 37.267399 2.515148 -2.301356 -0.024560 -0.138540 -0.243150 -0.065190 
-0.530100 16.500750 -0.411440 -0.501147 3.971098 2.570847 -15.257235 14.063707 2.735375 6.823046 -2.651052 -26.188750 11.595568 3.097168 37.247892 0.070310 5.684113 2.429482 0.376040 0.300960 0.544020 18.186424 -10.526241 2.763904 -1.057346 0.541948 -9.877584 4.939121 -3.946853 9.780743 -0.141793 -3.135199 3.124690 0.177460 0.118240 0.265020 -3.408745 -3.496210 -7.088734 4.578692 -0.060988 12.942278 -1.731586 1.533348 6.868549 -1.858785 -11.444651 -12.814423 -28.254496 25.700726 21.819159 -9.441850 23.078260 -3.807460 -0.355275 -1.214079 6.755056 -28.242812 0.358680 -1.278490 -42.539239 -45.299422 15.448421 -3.637112 3.824008 0.086930 0.203880 0.077690 0.057480 4.988224 9.529752 5.749373 26.167364 5.252236 -0.867721 79.054823 52.400573 35.221521 2.533106 -2.251248 -0.033980 -0.096110 -0.239800 -0.073400 
-0.503740 16.510150 -0.419690 -0.140543 7.110815 2.793961 -15.298078 13.927917 2.939386 6.500752 -3.137418 -26.608693 8.084128 4.953910 40.616228 0.143024 6.374786 2.186912 0.382900 0.287580 0.533090 18.157243 -10.511081 2.662350 -1.149706 0.671382 -10.738533 4.175747 -3.914633 11.145215 -0.123654 -3.063522 3.154267 0.176080 0.120590 0.249680 -3.365460 -3.422579 -7.150203 4.450599 0.224817 12.773695 -1.421748 1.742510 6.614903 -1.689421 -11.125225 -12.310174 -26.855326 24.137455 23.493629 -8.353810 21.058220 -3.929600 -1.671956 -1.129393 5.986227 -34.611343 -3.127998 -1.502921 -40.274825 -44.543214 13.935538 -3.626258 3.728099 0.125880 0.179330 0.072850 0.062880 5.852196 9.423812 5.836158 33.805792 6.199931 -1.305097 76.602448 51.514960 32.815092 2.528049 -2.219550 -0.050590 -0.067600 -0.226170 -0.078490 
-0.461370 16.501560 -0.414160 -0.146120 10.693740 3.683383 -15.315179 13.673983 3.173913 6.680376 -3.692207 -27.391423 3.867053 7.300822 43.095828 0.293702 7.112295 1.951998 0.349920 0.245690 0.471550 18.172408 -10.454487 2.566196 -1.129918 0.946382 -12.142311 4.124729 -3.980267 12.441717 -0.077518 -3.058118 3.164663 0.152740 0.165360 0.258450 -3.423641 -3.227992 -7.207037 5.491451 0.140699 11.765900 -1.715759 1.571141 5.933371 -1.360737 -10.743459 -11.614464 -24.899486 22.903157 23.967118 -7.384010 20.094960 -1.774390 -4.165612 -0.760849 5.247881 -40.617477 -4.995291 -1.773713 -38.461631 -44.927584 13.125329 -3.664773 3.727185 0.088220 0.209380 0.026790 0.084330 7.583319 8.774542 5.658407 41.062115 6.705309 -1.357845 73.323489 50.656030 30.323270 2.536638 -2.254002 -0.050770 -0.093720 -0.215330 -0.056140 
-0.422680 16.478630 -0.417230 -0.230648 14.678485 4.526000 -15.327717 13.397008 3.433110 6.951410 -4.272372 -28.125731 -0.522739 9.746675 44.436735 0.463895 7.824396 1.758622 0.298630 0.188280 0.406980 18.192561 -10.398328 2.464397 -1.061317 1.282279 -13.790418 3.986933 -4.092350 14.408404 -0.018757 -3.074917 3.185042 0.128340 0.242640 0.239880 -3.500534 -3.012129 -7.279290 6.544593 -0.000711 11.020540 -2.081730 1.350101 4.903379 -1.072225 -10.316606 -10.798695 -22.798940 21.758104 23.692776 -5.927830 18.977330 0.485470 -8.386465 -0.684379 4.369802 -44.455183 -5.751556 -2.093238 -38.522444 -46.416738 13.566046 -3.729775 3.695725 0.037170 0.250860 -0.039050 0.107120 11.128739 8.282693 5.525522 46.035378 6.296192 -1.354319 71.873974 50.350237 29.294048 2.565453 -2.252933 -0.073690 -0.078830 -0.202720 -0.028520 
-0.373320 16.447600 -0.416020 -0.795868 18.755500 5.522524 -15.308937 13.101298 3.601295 7.155299 -4.558462 -28.494660 -4.678905 11.716201 43.697583 0.536383 8.227051 1.662670 0.246490 0.119510 0.356740 18.245806 -10.381160 2.410115 -0.574984 1.768488 -15.814519 3.633025 -4.189589 16.724726 0.040103 -3.126051 3.184086 0.113900 0.311180 0.219080 -3.672561 -2.628469 -7.294734 8.454897 0.045509 9.732857 -2.654103 1.280717 3.880099 -0.669656 -9.833605 -9.656491 -20.522253 20.308784 23.085662 -5.292250 17.870250 2.040360 -12.803862 -0.018600 3.259900 -48.558085 -6.574532 -1.890707 -38.462463 -47.607099 14.000816 -3.803077 3.653652 0.003450 0.297900 -0.112460 0.112700 14.512983 7.163665 5.034949 50.884196 6.407576 -0.697126 69.509639 49.079979 27.517550 2.560305 -2.245223 -0.117760 -0.061880 -0.176950 -0.026160 
-0.319710 16.439520 -0.416360 -1.351604 23.221977 5.609960 -15.274038 13.005005 3.587833 6.810047 -4.390332 -27.082999 -7.780695 12.431935 40.669324 0.558105 7.975813 1.761031 0.233440 0.113020 0.357970 18.266154 -10.479179 2.434415 -0.204567 2.089815 -17.027123 3.224762 -4.318929 18.826318 0.025197 -3.187515 3.173752 0.085760 0.285000 0.212300 -3.867669 -2.279496 -7.311762 10.436883 -0.150612 9.425861 -3.830394 1.017238 2.916182 0.437119 -9.378550 -8.832112 -18.797480 18.807975 23.742786 -6.199760 17.489990 1.493440 -18.571951 -0.083798 2.336765 -50.462824 -6.348422 -2.278147 -38.337463 -49.690100 14.739753 -3.801626 3.593131 0.007390 0.281980 -0.089020 0.112570 17.815445 6.864065 4.746831 55.477703 7.245126 -0.061897 65.879191 48.283157 25.458417 2.596361 -2.182791 -0.100770 -0.068270 -0.191340 -0.021610 
-0.280020 16.438650 -0.426360 -1.398160 28.098657 5.545496 -15.269369 13.008917 3.494079 5.950617 -4.037277 -24.949837 -9.984675 12.294119 36.594971 0.442316 7.436774 1.933444 0.236030 0.106990 0.403220 18.243396 -10.612249 2.469412 0.024680 2.443663 -18.242807 2.151579 -4.330059 21.458779 -0.013687 -3.282218 3.117789 0.076370 0.236320 0.217000 -3.990945 -2.014690 -7.281389 11.162917 -0.334773 9.043890 -4.316040 0.691352 3.312424 1.344793 -8.644099 -8.337810 -16.695574 17.506613 24.696013 -7.801020 17.497140 -0.902370 -23.173816 -1.447698 2.152465 -51.839144 -6.791436 -2.430782 -39.597543 -52.458571 16.192478 -3.799869 3.528226 0.062880 0.256460 -0.046370 0.078790 20.458984 7.807212 4.637378 59.642509 9.485019 0.870437 61.747272 48.301109 23.562819 2.600894 -2.082394 -0.105520 -0.057120 -0.179420 -0.057280 
